<?xml version="1.0" encoding="utf-8"?>
<!-- Generator: Adobe Illustrator 22.1.0, SVG Export Plug-In . SVG Version: 6.00 Build 0)  -->
<svg version="1.1" id="Capa_1" xmlns="http://www.w3.org/2000/svg" xmlns:xlink="http://www.w3.org/1999/xlink" x="0px" y="0px"
	 viewBox="0 0 16 16" style="enable-background:new 0 0 16 16;" xml:space="preserve">
<style type="text/css">
	.st0{fill:#444444;}
</style>
<path d="M16,10.1C16,5.7,12.4,2,8,2s-8,3.7-8,8.1C0,11.5,0.3,13,0.9,14h4.9c0.5,0.6,1.3,1,2.2,1s1.7-0.4,2.2-1h4.9
	C15.7,13,16,11.5,16,10.1z M14,7v1l-4.1,3.5c0,0.1,0.1,0.3,0.1,0.5c0,1.1-0.9,2-2,2s-2-0.9-2-2s0.9-2,2-2c0.3,0,0.6,0.1,0.8,0.2
	L13,7H14z M10,4h1v1h-1V4z M5,4h1v1H5V4z M2,12H1v-1h1V12z M3,8H2V7h1V8z M15,12h-1v-1h1V12z"/>
<path class="st0" d="M9,12c0,0.6-0.4,1-1,1s-1-0.4-1-1s0.4-1,1-1S9,11.4,9,12z"/>
</svg>
