<?xml version="1.0" encoding="utf-8"?>
<!-- Generator: Adobe Illustrator 21.0.0, SVG Export Plug-In . SVG Version: 6.00 Build 0)  -->
<svg version="1.1" id="Capa_1" xmlns="http://www.w3.org/2000/svg" xmlns:xlink="http://www.w3.org/1999/xlink" x="0px" y="0px"
	 viewBox="0 0 111 77.918" enable-background="new 0 0 111 77.918" xml:space="preserve">
<g id="XiZo1r.tif">
	<g>
		<path d="M0,0c37,0,74,0,111,0c0,7.473,0,14.945,0,22.418c-0.506-0.021-1.012-0.06-1.517-0.06
			c-35.981-0.003-71.961-0.003-107.942-0.003c-0.493,0-0.985,0-1.541,0C0,14.793,0,7.397,0,0z M22.156,5.731
			c-3.726,0-7.364,0-10.974,0c0,3.717,0,7.355,0,10.974c3.7,0,7.313,0,10.974,0C22.156,13.035,22.156,9.422,22.156,5.731z"/>
		<path d="M111,55.5c0,7.473,0,14.945,0,22.418c-0.506-0.021-1.012-0.06-1.517-0.06c-35.98-0.003-71.96-0.003-107.939-0.003
			c-0.493,0-0.986,0-1.466,0c0-7.508,0-14.853,0-22.293c0.573,0,1.073,0,1.574,0c35.943,0,71.887,0,107.83-0.003
			C109.988,55.56,110.494,55.521,111,55.5z M11.144,72.186c3.727,0,7.365,0,10.974,0c0-3.717,0-7.356,0-10.973
			c-3.7,0-7.313,0-10.974,0C11.144,64.883,11.144,68.496,11.144,72.186z"/>
		<path d="M111,27.859c0,7.4,0,14.8,0,22.2c-36.971,0-73.941,0-110.915,0c0-7.471,0-14.807,0-22.2
			C37.11,27.859,74.055,27.859,111,27.859z M11.157,33.509c0,3.652,0,7.252,0,10.879c3.696,0,7.329,0,10.969,0
			c0-3.674,0-7.274,0-10.879C18.436,33.509,14.826,33.509,11.157,33.509z"/>
	</g>
</g>
</svg>
