<?xml version="1.0" encoding="utf-8"?>
<!-- Generator: Adobe Illustrator 21.0.0, SVG Export Plug-In . SVG Version: 6.00 Build 0)  -->
<svg version="1.1" id="Capa_1" xmlns="http://www.w3.org/2000/svg" xmlns:xlink="http://www.w3.org/1999/xlink" x="0px" y="0px"
	 viewBox="0 0 73 83.804" enable-background="new 0 0 73 83.804" xml:space="preserve">
<g>
	<path fill="#070308" d="M72.955,40.412c0.001,7.02-0.084,14.042,0.043,21.059c0.051,2.806-1.043,5.016-2.678,7.086
		c-1.693,2.144-3.873,3.651-6.41,4.629c-1.788,0.689-3.68,0.839-5.573,0.908c-1.213,0.044-2.429,0.001-3.643,0.023
		c-0.221,0.004-0.44,0.132-0.661,0.203c0.1,0.202,0.157,0.445,0.306,0.599c0.978,1.013,1.984,2,2.965,3.01
		c0.64,0.659,0.616,0.922-0.026,1.565c-1.265,1.269-2.523,2.545-3.779,3.823c-0.629,0.64-1.099,0.652-1.73,0.013
		c-4.051-4.105-8.101-8.21-12.149-12.318c-0.749-0.76-0.735-0.945,0.026-1.717c4.051-4.107,8.099-8.217,12.147-12.329
		c0.749-0.761,0.922-0.749,1.674,0.026c1.248,1.287,2.509,2.56,3.775,3.83c0.703,0.706,0.72,0.897,0.04,1.592
		c-1.018,1.04-2.046,2.071-3.053,3.122c-0.149,0.155-0.204,0.399-0.303,0.603c0.199,0.056,0.4,0.166,0.597,0.159
		c2.032-0.069,4.075,0.206,6.093-0.299c1.862-0.466,3.249-1.525,4.293-3.107c0.91-1.379,1.115-2.92,1.116-4.513
		c0.003-11.975-0.008-23.951,0.009-35.926c0.004-2.441-0.614-4.587-2.525-6.236c-1.404-1.212-3.056-1.761-4.88-1.766
		c-6.656-0.016-13.311-0.007-19.967-0.007c-0.291,0-0.583,0.005-0.874-0.003c-1.004-0.028-1.17-0.196-1.173-1.215
		c-0.005-1.798-0.005-3.595,0-5.393c0.002-0.95,0.272-1.25,1.196-1.251c6.947-0.006,13.897-0.111,20.841,0.034
		C64.43,6.736,68.9,9.32,71.83,14.415c0.747,1.299,1.145,2.628,1.14,4.134C72.94,25.837,72.954,33.125,72.955,40.412z"/>
</g>
<path fill="#070308" d="M27.14,59.126H2.562c-1.385,0-2.519,1.133-2.519,2.519V78.48c0,1.385,1.133,2.519,2.519,2.519H27.14
	c1.385,0,2.519-1.133,2.519-2.519V61.644C29.659,60.259,28.525,59.126,27.14,59.126z M22.789,73.149
	c0,0.674-0.551,1.225-1.225,1.225H8.138c-0.674,0-1.225-0.551-1.225-1.225v-6.173c0-0.674,0.551-1.225,1.225-1.225h13.426
	c0.674,0,1.225,0.551,1.225,1.225V73.149z"/>
<path fill="#070308" d="M27.14,29.69H2.562c-1.385,0-2.519,1.133-2.519,2.519v16.836c0,1.385,1.133,2.519,2.519,2.519H27.14
	c1.385,0,2.519-1.133,2.519-2.519V32.208C29.659,30.823,28.525,29.69,27.14,29.69z M22.789,43.713c0,0.674-0.551,1.225-1.225,1.225
	H8.138c-0.674,0-1.225-0.551-1.225-1.225V37.54c0-0.674,0.551-1.225,1.225-1.225h13.426c0.674,0,1.225,0.551,1.225,1.225V43.713z"/>
<path fill="#070308" d="M27.14,22.127H2.562c-1.385,0-2.519-1.133-2.519-2.519V2.772c0-1.385,1.133-2.519,2.519-2.519H27.14
	c1.385,0,2.519,1.133,2.519,2.519v16.836C29.659,20.994,28.525,22.127,27.14,22.127z"/>
</svg>
