<?xml version="1.0" encoding="utf-8"?>
<!-- Generator: Adobe Illustrator 21.0.0, SVG Export Plug-In . SVG Version: 6.00 Build 0)  -->
<svg version="1.1" id="Capa_1" xmlns="http://www.w3.org/2000/svg" xmlns:xlink="http://www.w3.org/1999/xlink" x="0px" y="0px"
	 viewBox="0 0 377 310.39" enable-background="new 0 0 377 310.39" xml:space="preserve">
<g>
	<path d="M0,287.497c125.667,0,251.332,0,376.999,0C377,295.128,377,302.759,377,310.39c-125.667,0-251.333,0-377,0
		C0,302.759,0,295.128,0,287.497z"/>
	<path d="M354.988,0c0,89.713,0,177.932,0,268.51c-21.434,0-42.858,0-66.321,0c0-88.743,0-177.732,0-268.51
		C309.911,0,330.631,0,354.988,0z"/>
	<path d="M176.759,269.387c-23.074,0-43.773,0-66.016,0c0-70.657,0-139.869,0-211.597c20.968,0,42.375,0,66.016,0
		C176.759,127.025,176.759,197.004,176.759,269.387z"/>
	<path d="M199.36,269.105c0-55.927,0-110.345,0-167.106c21.46,0,42.872,0,66.322,0c0,54.952,0,110.142,0,167.106
		C244.41,269.105,223.702,269.105,199.36,269.105z"/>
	<path d="M88.988,146.575c0,41.115,0,80.751,0,122.336c-22.498,0-43.896,0-66.967,0c0-40.501,0-80.148,0-122.336
		C42.899,146.575,64.302,146.575,88.988,146.575z"/>
</g>
</svg>
