<?xml version="1.0" encoding="utf-8"?>
<!-- Generator: Adobe Illustrator 21.0.0, SVG Export Plug-In . SVG Version: 6.00 Build 0)  -->
<svg version="1.1" id="Capa_1" xmlns="http://www.w3.org/2000/svg" xmlns:xlink="http://www.w3.org/1999/xlink" x="0px" y="0px"
	 viewBox="0 0 72.167 63.404" enable-background="new 0 0 72.167 63.404" xml:space="preserve">
<g>
	<path d="M54.5,63.404c-0.286-1.065-0.631-1.787-0.649-2.517c-0.066-2.778-0.027-5.559-0.027-8.461c-18.001,0-35.854,0-53.825,0
		c0-3.952,0-7.783,0-11.793c17.834,0,35.723,0,53.825,0c0-2.944-0.042-5.717,0.027-8.487c0.019-0.767,0.367-1.525,0.669-2.696
		c2.011,1.719,3.676,3.088,5.28,4.525c2.535,2.271,5.032,4.585,7.539,6.887c1.082,0.994,2.239,1.926,3.206,3.023
		c2.131,2.416,2.213,2.997-0.068,5.201c-4.532,4.379-9.28,8.536-13.95,12.772C56.023,62.316,55.442,62.69,54.5,63.404z"/>
	<path d="M71.916,22.389c-17.999,0-35.949,0-54.129,0c0,2.371,0,4.633,0,6.894c0,0.254,0.037,0.514-0.007,0.76
		c-0.158,0.898-0.343,1.792-0.517,2.687c-0.905-0.528-1.916-0.933-2.695-1.607c-2.492-2.156-4.935-4.371-7.326-6.639
		c-2.214-2.1-4.347-4.287-6.496-6.456c-1.153-1.164-0.861-2.362,0.176-3.368c2.791-2.709,5.63-5.37,8.473-8.025
		c2.182-2.038,4.389-4.051,6.615-6.041C16.338,0.301,16.834,0.194,17.253,0c0.176,0.503,0.492,1.002,0.503,1.508
		c0.055,2.486,0.028,4.974,0.03,7.461c0,0.495,0,0.989,0,1.592c18.112,0,36.061,0,54.129,0
		C71.916,14.503,71.916,18.334,71.916,22.389z"/>
</g>
</svg>
