<?xml version="1.0" encoding="utf-8"?>
<!-- Generator: Adobe Illustrator 21.0.0, SVG Export Plug-In . SVG Version: 6.00 Build 0)  -->
<svg version="1.1" id="Capa_1" xmlns="http://www.w3.org/2000/svg" xmlns:xlink="http://www.w3.org/1999/xlink" x="0px" y="0px"
	 viewBox="0 0 42.582 39.908" enable-background="new 0 0 42.582 39.908" xml:space="preserve">
<g>
	<path d="M42.582,13.715c-0.035,0.103-0.075,0.204-0.103,0.308c-0.318,1.153-1.276,1.919-2.464,1.927
		c-1.788,0.013-3.576,0.015-5.364,0.001c-1.413-0.012-2.607-1.159-2.619-2.547c-0.028-3.222-1.75-5.327-4.45-6.768
		c-1.53-0.816-3.209-1.113-4.927-1.194c-2.211-0.105-4.407-0.043-6.525,0.71c-1.933,0.687-3.477,1.864-4.559,3.624
		c-0.609,0.992-0.922,2.066-0.931,3.231c-0.014,1.886-1.096,2.952-2.984,2.948c-1.566-0.003-3.133,0.001-4.699,0.001
		c-1.867,0-2.95-1.076-2.951-2.933c0-0.79,0.016-1.581-0.004-2.37c-0.037-1.484,0.479-2.737,1.526-3.777
		c2.889-2.871,6.233-4.941,10.236-5.887c3.822-0.903,7.7-1.081,11.603-0.95c2.622,0.088,5.216,0.39,7.769,1.03
		c3.859,0.967,7.079,3.012,9.888,5.772c0.861,0.846,1.36,1.869,1.559,3.049C42.582,11.165,42.582,12.44,42.582,13.715z"/>
	<path d="M18.622,15.95c1.793,0,3.534,0,5.337,0c0-0.43,0-0.853,0-1.277c0-0.624,0.012-1.248-0.003-1.871
		c-0.018-0.721,0.308-1.248,0.88-1.643c0.999-0.688,2.531-0.692,3.539-0.011c0.591,0.399,0.914,0.935,0.9,1.674
		c-0.019,0.997-0.004,1.996-0.003,2.993c0,0.027,0.008,0.054,0.024,0.152c0.367,0,0.748,0.007,1.129-0.001
		c1.024-0.021,1.816,0.395,2.402,1.232c2.288,3.274,4.428,6.633,5.962,10.342c0.76,1.837,1.218,3.726,1.134,5.737
		c-0.053,1.273-0.009,2.55-0.009,3.825c0,1.66-1.131,2.805-2.785,2.806c-10.56,0.002-21.12,0.002-31.681,0
		c-1.657,0-2.78-1.137-2.783-2.803c-0.002-1.386,0.041-2.773-0.013-4.157C2.592,31.371,2.95,29.9,3.535,28.461
		c1.167-2.871,2.707-5.544,4.321-8.178c0.622-1.015,1.276-2.011,1.92-3.013c0.571-0.889,1.385-1.324,2.444-1.303
		c0.344,0.007,0.689,0.001,1.064,0.001c0.01-0.146,0.026-0.266,0.026-0.385c0.003-0.915,0.021-1.83-0.003-2.744
		c-0.019-0.758,0.315-1.301,0.922-1.703c1-0.663,2.516-0.658,3.505,0.017c0.588,0.4,0.908,0.941,0.894,1.679
		C18.608,13.855,18.622,14.879,18.622,15.95z M29.281,29.27c0.01-4.375-3.571-7.983-7.934-7.993
		c-4.458-0.01-8.042,3.556-8.046,8.006c-0.004,4.368,3.59,7.97,7.956,7.974C25.69,37.262,29.271,33.698,29.281,29.27z"/>
	<path d="M21.278,34.584c-2.9,0.001-5.299-2.394-5.301-5.29c-0.002-2.96,2.373-5.339,5.331-5.342c2.902-0.002,5.301,2.391,5.3,5.287
		C26.605,32.204,24.233,34.583,21.278,34.584z"/>
</g>
</svg>
